<?xml version="1.0" encoding="utf-8"?>
<!-- Generator: Adobe Illustrator 19.2.0, SVG Export Plug-In . SVG Version: 6.00 Build 0)  -->
<svg version="1.1" id="Layer_1" xmlns="http://www.w3.org/2000/svg" xmlns:xlink="http://www.w3.org/1999/xlink" x="0px" y="0px"
	 viewBox="0 0 48 48" style="enable-background:new 0 0 48 48;" xml:space="preserve">
<style type="text/css">
	.st0{fill:#7510F7;}
	.st1{fill:none;stroke:#7510F7;stroke-miterlimit:10;}
</style>
<g>
	<rect x="19.5" y="35.8" class="st0" width="1.5" height="3.1"/>
	<rect x="39" y="37.6" class="st0" width="1" height="1"/>
	<path class="st1" d="M33.5,40.3H29c-0.9,0-1.6-0.7-1.6-1.6V28.6c0-0.9,0.7-1.6,1.6-1.6h4.5c0.9,0,1.6,0.7,1.6,1.6v10.1
		C35.2,39.6,34.4,40.3,33.5,40.3z"/>
	<path class="st1" d="M46.1,20.6H33.2c-0.8,0-1.4,0.6-1.4,1.4v5h2c0.8,0,1.4,0.6,1.4,1.4v10.4c0,0.8-0.6,1.4-1.4,1.4h12.3
		c0.8,0,1.4-0.6,1.4-1.4V22C47.5,21.2,46.9,20.6,46.1,20.6z"/>
	<path class="st0" d="M27.4,38.9H11.3v1.4h17.5C28,40.3,27.4,39.7,27.4,38.9z"/>
	<path class="st1" d="M38.6,9.8H2c-0.8,0-1.4,0.6-1.4,1.4v23.1c0,0.8,0.6,1.4,1.4,1.4h25.4v-7.4c0-0.8,0.6-1.4,1.4-1.4h3v-5
		c0-0.8,0.6-1.4,1.4-1.4H40v-9.3C40,10.5,39.4,9.8,38.6,9.8z"/>
	<rect x="31" y="38.5" class="st0" width="0.5" height="0.7"/>
</g>
</svg>
